<mxfile host="app.diagrams.net" modified="2023-03-01T03:27:03.459Z" agent="5.0 (Macintosh; Intel Mac OS X 10_15_7) AppleWebKit/537.36 (KHTML, like Gecko) Chrome/109.0.0.0 Safari/537.36" etag="TsfNKj-7kSU3Z5WDQEa6" version="20.4.2" type="github">
  <diagram id="MP1DGGIDWMFPpnM0zEEc" name="第 1 页">
    <mxGraphModel dx="976" dy="558" grid="1" gridSize="10" guides="1" tooltips="1" connect="1" arrows="1" fold="1" page="1" pageScale="1" pageWidth="4681" pageHeight="3300" math="0" shadow="0">
      <root>
        <mxCell id="0" />
        <mxCell id="1" parent="0" />
      </root>
    </mxGraphModel>
  </diagram>
</mxfile>
